<svg version="1.2" baseProfile="tiny-ps" xmlns="http://www.w3.org/2000/svg" viewBox="0 0 1280 1280" width="1280" height="1280">
	<title>box1-svg</title>
	<style>
		tspan { white-space:pre }
		.shp0 { fill: #ffffff } 
	</style>
	<g id="Layer">
		<path id="Layer" fill-rule="evenodd" class="shp0" d="M457.93 1187.56C367.21 1157.71 290.06 1107.88 220.58 1034.32C153.54 963.12 108.28 884.53 84.62 797.95C69.06 740.96 62.88 689.1 64.25 626.92C67.48 485.75 113.62 365.81 204.48 262.52C279.31 177.37 372.47 116.55 473.4 86.92C531.82 69.79 588.7 62.73 654.48 64.39C786.44 67.7 901.89 109.54 998.64 188.94C1082.44 257.74 1145.72 344.15 1180.05 436.69C1202.34 496.63 1212.56 550.89 1215 621.47C1217.33 692.24 1206 769.59 1183.81 832.39C1156.15 910.96 1114.99 976.6 1054.4 1038.89C976.9 1118.59 888.33 1171.41 788.18 1197.56C751.25 1207.19 703.68 1213.67 660.34 1215.04C591.37 1217.22 517.68 1207.18 457.93 1187.56ZM891.04 959.02C919.54 955.19 949.18 945.38 973.21 931.65C1001.8 915.42 1030.46 887.89 1049.86 858.24C1067.71 830.85 1080.52 797.04 1087.41 759.09C1090.4 742.66 1091.51 695.67 1089.3 679.12C1084.28 641.89 1076.19 611.59 1060.89 573.42C1040.4 521.92 1009.43 473.47 962.98 420.06C889.74 335.91 801.35 266.91 670.57 192.1C659.22 185.63 649.45 180.3 648.85 180.29C646.75 180.24 582.13 214.22 556.58 228.72C473.64 276.08 408.61 323.06 352.95 376.06C267.81 457.27 219.24 531.75 194.15 619.88C179.86 670.16 178.11 719.03 188.88 767C204.72 837.59 246.7 893.9 306.1 924.31C335.06 939.09 362.38 946.74 392.65 948.45C427.01 950.47 458.04 945.6 494.46 932.45C537.54 916.96 585.25 883.08 626.2 838.93L633.29 831.2L637.57 836.2C647.7 847.74 673.08 874.15 681.7 881.96C714.41 911.84 746.74 931.8 783.54 945.08C799.61 950.86 817.8 955.49 832.46 957.63C847.21 959.78 879.2 960.54 891.04 959.02Z" />
		<path id="Layer" class="shp0" d="M909.87 737.7L887.68 736.87L887.69 732.37C887.65 729.87 888.25 691.68 888.99 647.38C889.64 603.08 890.42 544.69 890.65 517.68L891.22 468.38L913.71 468.91L936.3 469.45L935.7 524.75C934.72 617.25 932.89 736.94 932.47 737.73C932.16 738.12 922.06 738.09 909.87 737.7Z" />
		<path id="Layer" class="shp0" d="M878.47 737.16L855.78 736.62L833.18 736.09L833.48 723.39C833.65 716.29 834.21 671.5 834.84 623.6C835.47 575.8 836.26 521.1 836.71 502.11L837.42 467.61L859.71 468.14L882.01 468.67L881.18 529.16C880.69 562.46 879.97 622.86 879.41 663.46L878.47 737.16Z" />
		<path id="Layer" class="shp0" d="M444.29 726.91L422 726.19L399.82 725.36L400.31 678.86C400.62 653.26 401.34 592.96 402.08 544.76L403.35 457.17L425.06 456.88C437.16 456.77 447.16 457.1 447.65 457.52C448.23 458.23 445.92 662.33 444.62 713.22L444.29 726.91Z" />
		<path id="Layer" class="shp0" d="M355.83 724.42L344.83 724.06L345.67 663.07C346.16 629.57 346.89 568.87 347.45 528.37L348.39 454.57L370.89 455.1L393.38 455.63L392.84 503.94C392.61 530.44 391.79 590.93 391.07 638.33L389.63 724.52L378.23 724.65C371.93 724.7 361.83 724.56 355.83 724.42Z" />
		<path id="Layer" class="shp0" d="M333.05 651.27L315.05 650.84L297.06 650.42L297.56 628.92L298.07 607.43L289.07 607.22L280.08 607L280.55 587.01L281.02 567.11L289.72 567.02L298.53 566.93L299.29 547.24L299.96 527.45L317.95 527.88L335.95 528.3L334.5 589.78L333.05 651.27Z" />
		<path id="Layer" class="shp0" d="M981.89 665.58L963.89 665.15L945.9 664.73L947.35 603.25L948.8 541.76L966.8 542.19L984.79 542.61L984.27 564.61L983.75 586.6L992.25 586.8L1000.75 587L1000.28 607L999.81 626.99L991.31 626.79L982.81 626.59L982.35 646.08L981.89 665.58Z" />
		<path id="Layer" class="shp0" d="M823.9 620.84L640.16 616.3L456.52 611.67L456.68 591.97L456.95 572.17L640.9 576.51L824.85 580.85L824.37 600.84L823.9 620.84Z" />
	</g>
</svg>