<svg version="1.2" baseProfile="tiny-ps" xmlns="http://www.w3.org/2000/svg" viewBox="0 0 1280 1280" width="1280" height="1280">
	<title>box2-svg</title>
	<style>
		tspan { white-space:pre }
		.shp0 { fill: #ffffff } 
	</style>
	<g id="Layer">
		<path id="Layer" fill-rule="evenodd" class="shp0" d="M391.99 1235.2L323.29 1235.3L254.59 1235.3L248.09 1232.9C221.59 1223.3 194.29 1196.3 179.49 1165C162.89 1129.9 157.19 1087.1 164.19 1050.8C166.69 1037.4 167.09 1036.2 170.89 1024.9C175.19 1012.1 180.59 1000.7 189.09 986.3C197.29 972.5 201.79 966.5 211.59 956.6C225.09 943 241.19 933.7 260.29 928.6C269.09 926.2 272.19 925.9 293.49 925.5C327.59 924.9 374.69 927.5 389.39 930.9C416.69 937.3 438.69 952 456.39 975.8C468.39 991.8 475.59 1005.4 481.49 1023C483.59 1029.3 485.49 1034.7 485.79 1035C486.79 1035.9 491.39 1026.7 494.29 1017.8C497.39 1008.7 499.59 999.2 503.49 978.3C506.89 960.4 517.89 923.8 527.49 898.3C535.79 876.5 537.49 860.7 533.49 842.7C530.99 831.4 530.89 816.5 533.19 801.3C535.09 788.9 535.29 779.4 533.89 766.8C532.39 753.5 534.09 742.7 539.59 730.8C540.59 728.6 542.39 723.7 543.49 719.8C546.69 709.2 548.99 703.8 552.59 698.6C555.59 694.2 555.99 693 556.59 683.3C556.99 677.5 557.39 668.5 557.39 663.3C557.49 651.6 559.59 639.6 562.79 631.7L565.19 625.7L563.39 616.7C562.39 611.8 561.59 606.2 561.49 604.2C561.49 597.6 558.39 580 555.99 572.4C554.69 568.2 553.09 562.1 552.39 558.8C550.09 547.4 545.99 535.1 540.29 522.5C538.79 519.1 537.49 516.1 537.49 515.9C537.49 515.7 534.79 509.8 531.49 502.9C528.19 495.9 525.49 490 525.49 489.8C525.49 489.5 523.99 486 522.09 482.1C520.09 477.5 515.89 471.5 511.19 465.9C503.79 457.3 495.99 444.5 486.19 424.8C479.89 412 474.79 397.9 471.89 385C464.39 351.6 461.99 345.1 451.99 330.3C434.79 305 425.69 286.2 411.49 246.9C402.39 221.5 398.19 214.7 388.79 210.2C384.49 208.1 383.59 208.1 370.19 208.9C344.39 210.4 330.09 208.9 313.89 203.2C302.89 199.3 297.59 196.7 285.49 189C266.19 176.7 246.69 168 211.99 156C184.69 146.6 182.59 146.2 172.69 148.4C169.99 149.1 166.59 149.3 165.09 148.9C161.99 148.1 136.49 122.4 131.99 115.5C126.39 106.9 124.49 99.2 124.49 84.7L124.49 71.8L127.79 69.7C148.19 56.7 152.29 53.2 165.59 37.2C175.79 24.9 180.29 21.4 189.49 18.4C195.39 16.4 197.99 16.3 229.49 16.3C266.79 16.3 265.69 16.1 267.09 22.9C268.49 30.2 263.59 38 256.19 40.2C241.79 44.5 237.39 47.7 239.29 52.9C240.09 55.3 239.79 56.6 237.49 60.8C235.89 63.6 234.19 68.5 233.59 71.7C232.19 79.1 232.19 89 233.49 89.8C236.99 91.9 250.19 79.1 256.99 66.9C262.49 57.1 265.09 54.7 263.39 60.8C260.79 70.2 253.09 82.7 246.99 87.5C245.59 88.6 244.79 89.9 245.09 90.4C245.79 91.5 251.39 90.6 252.99 89.2C253.49 88.7 254.99 88.3 256.49 88.3C257.89 88.3 260.89 87.6 263.19 86.8C265.49 86 268.09 85.6 268.89 85.9C270.69 86.6 271.59 88.8 270.89 90.6C270.09 92.8 262.99 96.3 259.39 96.3C254.29 96.3 239.09 98.5 238.09 99.3C236.79 100.6 239.39 107.1 242.09 109.2C247.89 113.8 259.89 116 282.49 116.8C292.69 117.1 303.89 117.8 307.49 118.3C311.09 118.8 319.49 119.7 325.99 120.3C340.99 121.7 350.39 123.6 358.49 126.9C364.19 129.2 365.49 129.3 373.89 128.7C385.49 127.9 398.69 129.8 423.29 135.9C441.19 140.3 441.69 140.5 455.29 148.4C472.89 158.8 481.09 165.1 492.69 177.1C516.79 202.2 533.29 230.8 546.19 269.3C548.09 275.1 551.09 282.3 552.79 285.3C556.49 291.9 564.99 300.5 576.49 309.3C585.39 316.1 589.19 317.2 594.59 314.7C606.09 309.4 623.79 303.5 655.99 294.4C669.69 290.5 683.89 286.4 687.49 285.3C705.99 279.8 709.69 279.1 721.39 279.1C732.39 279.1 752.09 281.9 775.99 286.8C780.89 287.8 784.69 288 788.49 287.4C797.29 286.1 808.89 283.3 809.89 282.3C810.39 281.8 809.49 278 807.69 273.1C802.19 257.8 800.99 250.5 801.09 231.8C801.19 212.6 802.69 202.6 807.49 189.3C815.69 167.1 817.99 151.2 817.99 118.2C817.99 94.3 817.89 92.4 816.09 90.4C814.99 89.2 812.99 88.3 811.49 88.3C807.49 88.3 805.09 84.9 800.49 72.3C793.59 53.7 791.59 46.6 790.39 35.9C789.79 30.3 788.39 23.4 787.39 20.5C785.09 14.2 784.99 9.5 786.89 6.7C788.29 4.7 789.69 4.6 811.19 3.9C823.69 3.5 846.09 2.7 860.99 2.2C875.79 1.7 901.69 1 918.49 0.7L948.99 0L951.79 2.8C955.19 6.2 955.49 12.5 952.49 18.2C950.09 23 939.79 30.9 934.19 32.3C922.69 35.3 919.89 37.1 915.39 44.2C913.39 47.2 912.49 50 912.49 52.7C912.49 57.1 910.29 60.3 907.29 60.3C904.79 60.3 882.99 81.7 883.99 83.2C884.39 84 885.49 83.8 887.29 82.5C888.79 81.5 891.29 80.1 892.79 79.3C894.39 78.5 896.89 76.4 898.29 74.6C905.09 66.2 907.79 63.3 909.09 63.3C910.99 63.3 910.89 63.8 907.49 69.8C905.79 72.7 900.79 78.7 896.29 83.1C888.19 91.1 888.19 91.2 889.79 93.7C890.69 95.1 893.49 97.6 895.99 99.3C900.79 102.6 906.09 110.4 905.09 112.8C903.59 116.9 897.99 112.7 891.19 102.5C889.29 99.5 886.69 96.4 885.39 95.5C883.29 94 882.99 94.1 879.99 97.7C877.19 101.1 876.49 101.4 873.29 100.8C870.19 100.2 869.69 100.4 869.19 102.5C866.89 110.8 869.39 130.7 875.89 157.6C881.59 181.1 882.19 184.3 883.49 193.5C885.29 207.5 885.69 245.1 884.39 278.3C883.69 296.2 883.09 317.1 882.99 324.8C882.69 340.4 881.79 343.8 876.09 350.1C871.89 354.7 862.09 359.8 851.99 362.6C847.59 363.8 846.99 364.4 846.39 367.2C845.99 368.9 844.89 371.3 843.99 372.4C839.59 377.1 810.39 399.6 806.49 401.1C805.79 401.4 802.39 403.3 798.99 405.3C781.99 415.7 757.79 425.1 735.99 429.8C729.39 431.3 713.69 433.2 708.59 433.3C701.09 433.3 690.49 435.2 687.69 437C685.69 438.3 685.39 439 685.89 442.1C686.19 444.2 686.89 449 687.29 452.8C687.79 456.7 688.79 461 689.49 462.3C690.19 463.7 694.69 468.6 699.49 473.3C707.09 480.8 708.79 483.1 713.39 492.5C716.19 498.4 721.39 507.1 724.79 512C734.39 525.5 739.09 534 749.89 557.6C751.89 562 753.49 565.6 753.49 565.9C753.49 566.1 754.59 568.6 755.89 571.5C765.99 593.6 769.49 608.5 769.49 629.6C769.49 642.7 767.79 657.2 764.89 667.8C763.99 671.4 763.19 678.9 763.09 686.3C762.79 697.5 762.39 699.8 759.49 708.3C756.29 717.4 756.09 718.5 755.69 735.5L755.29 753.1L759.29 759C767.59 771.3 771.69 781.7 777.49 805.3C778.59 810 780.89 818.1 782.49 823.3C787.89 840.8 788.69 844.7 789.19 856.3L789.79 867.8L794.09 874.1C796.39 877.5 798.69 881.4 799.09 882.6C799.39 883.8 802.09 890.9 804.99 898.4C810.89 913.5 815.49 927.8 815.49 931C815.49 932.2 815.89 933.4 816.39 933.8C816.89 934.1 821.19 931.3 825.79 927.6C843.79 913.2 862.99 906.6 901.99 901.4C910.19 900.3 922.79 898.4 929.99 897.2C944.99 894.7 964.69 894.3 974.49 896.2C991.99 899.6 1012.69 908.5 1025.49 918.2C1035.09 925.4 1050.19 941.5 1056.89 951.8C1070.39 972.1 1079.89 995 1084.69 1018.2C1087.29 1030.8 1087.79 1059.1 1085.69 1070.8C1079.09 1106.5 1066.79 1133.7 1048.69 1152.1C1036.29 1164.8 1021.99 1173.3 1001.99 1179.8C967.99 1190.9 940.59 1195.6 908.99 1195.6C891.79 1195.6 888.99 1195.4 879.79 1193C852.49 1186.1 831.49 1171.1 811.09 1143.8C798.99 1127.8 792.79 1115.9 785.89 1096.4C784.69 1092.9 782.99 1089.3 782.09 1088.5C779.79 1086.2 776.39 1087.9 772.29 1093.3C767.59 1099.6 765.49 1099.6 756.99 1093.3C743.79 1083.6 733.69 1081.1 715.99 1083.3C685.69 1086.9 641.69 1089.9 566.59 1093.3C554.29 1093.9 543.19 1094.6 541.99 1094.9C540.59 1095.2 539.19 1096.8 538.39 1098.6C537.09 1101.9 532.69 1107.3 531.29 1107.3C530.89 1107.3 527.59 1108.7 523.99 1110.3C517.69 1113.2 511.49 1114.2 511.49 1112.4C511.49 1112 510.39 1110.4 508.99 1108.9L506.59 1106.3L501.59 1108.2C498.39 1109.5 495.49 1110 493.09 1109.6C488.89 1108.9 488.79 1109.1 485.49 1123.8C478.49 1154.9 464.59 1181.8 444.69 1202.4C429.59 1218.2 417.09 1226.6 399.99 1232.5L391.99 1235.2ZM569.79 1074.7C570.09 1074.3 582.69 1073.6 597.69 1073.1C640.59 1071.6 675.79 1069.3 713.99 1065.3C718.89 1064.8 726.09 1064.1 729.99 1063.7C737.89 1062.9 739.39 1061.7 739.49 1056.2C739.49 1052.9 741.79 1049.3 743.89 1049.3C744.29 1049.3 746.59 1048 748.99 1046.3C751.39 1044.7 753.59 1043.3 753.79 1043.3C754.09 1043.3 757.29 1041.5 760.89 1039.3C764.49 1037.1 767.79 1035.3 768.09 1035.3C769.29 1035.3 772.49 1031 773.19 1028.5C773.79 1025.9 772.99 1014 771.49 1005.3C769.69 994.3 769.29 992.8 768.49 990.8C768.09 989.7 767.09 986.8 766.39 984.3C765.69 981.8 764.79 979.4 764.29 978.8C763.89 978.3 763.49 977.2 763.49 976.4C763.49 974.3 751.69 950.7 747.09 943.6C742.29 936.3 739.69 935.3 732.19 937.8C729.59 938.7 725.89 939.5 724.09 939.7C719.19 940.1 718.29 941 718.99 944.5C720.19 949.9 713.59 954 711.49 949.1C710.99 947.8 709.89 945.9 708.99 944.8C707.69 943.1 707.19 943 705.39 944.1C702.39 946 700.89 944.2 700.19 938C699.49 932.7 697.69 930.3 694.39 930.3C692.69 930.3 685.49 937.8 685.49 939.5C685.49 939.9 685.09 940.3 684.59 940.3C683.19 940.3 677.49 931.5 677.49 929.2C677.49 926.7 676.39 926.8 668.29 929.9C662.49 932.2 661.19 932.4 658.59 931.4C655.19 929.9 654.29 927.8 651.89 915.3C651.49 913.2 649.49 910 646.99 907.2C643.29 903.2 641.59 900.4 638.49 892.8C633.99 881.8 632.69 848.7 636.49 839.8C636.99 838.7 637.59 836.5 637.99 834.8C638.29 833.2 639.09 830 639.69 827.8C640.19 825.6 640.89 820.9 641.19 817.3C641.39 813.7 642.09 809.8 642.69 808.6C644.39 805.1 641.49 796.9 638.39 796.5C637.09 796.3 634.99 795.2 633.79 794.1C632.59 793 630.49 792.1 629.19 792.1C626.79 792.1 621.49 794.9 621.49 796.3C621.49 797.3 615.89 803 614.39 803.5C613.39 803.8 613.09 805.7 613.19 810.2C613.29 814.8 612.79 817.4 611.39 819.9C610.39 821.8 609.49 824.8 609.49 826.6C609.49 828.4 609.09 830.3 608.59 830.9C608.09 831.4 607.39 834.1 607.09 836.8C606.89 839.6 606.09 844.5 605.49 847.8C604.89 851.1 604.19 855.8 603.89 858.3C603.59 860.8 602.89 863.2 602.39 863.7C601.89 864.3 601.49 865.9 601.49 867.4C601.49 868.9 600.99 870.5 600.49 870.8C599.89 871.1 599.49 872.3 599.49 873.4C599.49 874.4 599.09 876.1 598.59 877.1C598.09 878 597.29 879.9 596.69 881.3C595.69 884 589.79 896.7 588.39 899.5C587.89 900.5 587.49 902.2 587.49 903.2C587.49 904.3 586.99 905.5 586.49 905.8C585.89 906.1 585.49 907.5 585.49 908.8C585.49 910.1 584.99 911.5 584.49 911.8C583.89 912.1 583.49 913.3 583.49 914.4C583.49 915.4 583.09 917.1 582.59 918.1C582.09 919 581.19 921.8 580.49 924.3C579.79 926.8 578.89 929.6 578.39 930.5C577.89 931.5 577.49 933.2 577.49 934.2C577.49 935.3 576.99 936.5 576.49 936.8C575.89 937.1 575.49 938.5 575.49 939.8C575.49 941.1 574.99 942.5 574.49 942.8C573.89 943.1 573.49 944.5 573.49 945.8C573.49 947.1 572.99 948.5 572.49 948.8C571.89 949.1 571.49 950.5 571.49 951.8C571.49 953.1 570.99 954.5 570.49 954.8C569.89 955.1 569.49 956.2 569.49 957.3C569.49 958.3 568.49 961.1 567.39 963.5C566.19 965.8 564.89 968.7 564.49 969.8C562.79 974.3 558.89 982 556.29 986C554.79 988.3 553.49 990.4 553.49 990.8C553.49 991.2 552.19 993.3 550.69 995.6C548.09 999.6 547.29 1001 544.49 1007.8C543.79 1009.5 542.89 1011.6 542.39 1012.5C541.89 1013.5 541.49 1015.3 541.49 1016.6C541.49 1017.9 541.09 1019.3 540.59 1019.9C539.49 1021 538.79 1026.1 537.49 1040.8C536.29 1054.6 535.49 1059.5 534.19 1061.1C533.19 1062.3 533.39 1063.1 536.39 1069.1C536.89 1070.3 539.29 1071.8 544.69 1074.5C546.69 1075.4 568.79 1075.6 569.79 1074.7Z" />
	</g>
</svg>