<svg version="1.2" baseProfile="tiny-ps" xmlns="http://www.w3.org/2000/svg" viewBox="0 0 1280 849" width="1280" height="849">
	<title>box4-svg</title>
	<style>
		tspan { white-space:pre }
		.shp0 { fill: #ffffff } 
	</style>
	<g id="Layer">
		<path id="Layer" class="shp0" d="M604.4 846.98C565.4 838.58 533.9 810.58 522.5 774.38C514.8 749.68 514.9 734.38 523 710.18C535.3 673.38 565.1 647.48 605 638.78C615.4 636.58 636 636.58 647 638.78C679.9 645.68 706.8 665.58 721.8 694.28C740.8 730.48 739 766.48 716.5 800.98C701.2 824.58 673.8 842.28 643.8 847.98C634.8 849.68 614.4 849.18 604.4 846.98Z" />
		<path id="Layer" class="shp0" d="M756.5 653.38C747.2 651.88 737.9 649.08 737 647.38C735.3 644.28 729 618.58 728.2 611.38C726.1 593.38 732.3 569.28 744.4 549.08C751.6 536.98 764 521.38 777.4 507.58C785.3 499.48 836.4 453.58 905.5 392.48C1025.3 286.68 1035.4 277.58 1058.5 255.38C1066.2 247.98 1077.7 236.98 1084 230.98L1095.5 220.18L942.5 220.78C858.3 221.08 783.3 221.68 775.6 221.98L761.7 222.58L762.3 228.88C762.6 232.28 763.4 262.08 764.1 294.98C765.5 363.18 764.3 434.18 761.5 450.88C755.7 484.88 744.4 501.48 725.9 503.08C718.4 503.78 712.9 501.78 705.1 495.48C691.7 484.78 682.8 471.38 669.4 441.88C664.9 431.98 658.3 418.08 654.7 410.88C647.7 397.08 643.9 385.68 641.4 370.88C640 362.68 639.1 324.58 638.1 231.68L638 222.38L625.3 222.38L612.7 222.38L613.3 241.58C613.7 252.18 614.4 269.18 615.1 279.38C616.9 309.88 614.9 332.08 608.6 350.38C605 360.68 594.1 384.98 585.9 400.88C574.9 422.38 558.3 442.78 550 445.28C544.1 446.98 534.1 446.78 529.2 444.88C517.8 440.28 506.7 419.38 503.2 395.88C500.4 377.48 495.6 298.78 494.5 253.18C494.1 240.38 493.7 228.38 493.4 226.68L492.9 223.38L359.6 223.38C286.3 223.38 212.1 223.68 194.7 224.08L163.1 224.68L175.3 236.38C211.3 270.88 260.6 315.68 348 393.28C475 506.18 477.9 508.88 492.8 527.68C515.3 555.98 526.9 587.88 524 613.58C522.1 630.88 516.4 647.08 511.3 649.68C507.6 651.58 499.6 653.08 489 653.88L480.5 654.38L472.6 649.78C456 640.08 445.3 631.58 427.7 614.48C404.7 592.08 386.5 569.98 348.1 517.88C306.8 461.98 298.6 451.38 256 399.38C222 357.78 213.9 347.38 164.5 281.08C138.5 246.18 122.8 225.88 121.3 225.28C120 224.78 116.4 224.38 113.4 224.38L108 224.38L108 309.78L108 395.18L93.7 395.88C85.9 396.18 62.2 396.38 41 396.18L2.5 395.88L1.4 389.38C0.5 384.68 0.2 330.08 0.1 191.68L0 0.38L54 0.38L108 0.38L108 95.38L108 190.38L300.2 189.78C406 189.38 492.6 189.08 492.7 188.98C492.8 188.88 493.3 172.88 493.9 153.38C494.5 133.88 495.7 111.38 496.5 103.38C499.8 72.18 506.5 40.88 512.2 30.18C518.5 18.38 531.6 7.88 542.7 5.78C548 4.78 559 7.08 566.7 10.88C579.6 17.28 585.4 25.78 594 51.48C604.3 82.28 608.4 111.58 611.6 175.68L612.2 188.38L624.6 188.38L637 188.38L637 167.98C637 108.38 646.5 51.28 660.1 28.78C667.4 16.88 678.5 8.78 691.3 6.28C702.3 4.08 715.3 9.68 726.6 21.58C734.7 30.18 736 32.88 741.4 51.68C750.1 81.88 753.9 106.38 759.1 164.38C760.2 177.28 761.2 187.98 761.3 188.08C761.4 188.18 806.5 187.88 861.5 187.38C916.5 186.98 1008.9 186.78 1066.7 187.18L1172 187.68L1172 96.58L1172 5.38L1226 5.38L1280 5.38L1280 201.78L1280 398.18L1277.3 398.78C1269.1 400.48 1238.5 401.38 1209.1 400.78L1176.6 400.08L1174.4 397.48L1172.1 394.88L1172 307.18L1172 219.38L1162.2 219.38C1156.7 219.38 1149 219.68 1144.9 219.98L1137.5 220.68L1125.5 236.28C1119 244.88 1099.3 270.98 1081.8 294.28C1047.1 340.38 1038.7 351.08 1002.5 395.38C957.2 450.78 936.7 476.78 906 517.88C865.8 571.68 855.8 583.98 836 604.78C816 625.68 784.4 649.68 772.7 652.88C766.3 654.58 764.2 654.68 756.5 653.38Z" />
	</g>
</svg>