<svg version="1.2" baseProfile="tiny-ps" xmlns="http://www.w3.org/2000/svg" viewBox="0 0 1280 1218" width="1280" height="1218">
	<title>box5-svg</title>
	<style>
		tspan { white-space:pre }
		.shp0 { fill: #ffffff } 
	</style>
	<g id="Layer">
		<path id="Layer" class="shp0" d="M267.83 1213.24C251.83 1206.54 245.63 1200.84 241.73 1189.04C238.53 1179.34 239.83 1173.74 251.23 1147.34C256.83 1134.54 261.23 1123.84 261.13 1123.74C260.53 1123.04 239.13 1114.14 238.93 1114.44C238.83 1114.64 236.33 1118.04 233.43 1121.94C219.83 1140.64 203.83 1148.64 179.83 1148.54C153.03 1148.54 131.23 1137.94 122.03 1120.44C114.63 1106.44 113.73 1092.84 118.73 1073.24C120.03 1068.04 120.83 1063.44 120.43 1063.14C119.43 1062.24 95.23 1052.04 94.83 1052.44C94.73 1052.64 90.13 1063.14 84.63 1075.84C79.13 1088.54 73.33 1100.64 71.73 1102.64C68.13 1107.24 61.23 1111.94 55.93 1113.44C53.63 1114.04 48.93 1114.54 45.33 1114.54C39.73 1114.54 37.13 1113.84 27.43 1109.74C9.43 1102.04 1.73 1093.14 0.63 1079.04C0.03 1070.54 0.73 1068.54 22.33 1018.74C53.93 945.74 51.93 949.84 57.23 944.94C63.33 939.24 66.53 937.64 74.43 936.14C82.43 934.74 88.93 936.14 102.63 942.54C113.13 947.44 118.33 952.04 122.33 959.84C124.43 964.04 124.83 966.14 124.83 973.74L124.83 982.74L115.53 1004.14C110.43 1015.94 106.63 1025.94 107.03 1026.34C107.43 1026.74 113.03 1029.34 119.33 1032.04L130.83 1036.94L138.93 1018.84C164.23 962.34 234.73 834.94 308.03 713.24C369.93 610.54 410.33 557.34 432.43 549.54L437.33 547.74L437.33 274.04L437.33 0.24L641.33 0.24L845.33 0.24L845.53 268.34L845.83 536.44L856.83 524.04C900.43 475.14 957.03 422.84 987.33 403.54C1004.43 392.64 1029.13 383.34 1056.33 377.64C1068.23 375.14 1094.53 375.04 1102.33 377.44C1114.43 381.24 1128.43 391.84 1136.93 403.84C1148.73 420.44 1158.23 448.64 1162.83 480.74C1167.43 513.44 1169.73 546.84 1171.33 603.64C1172.53 645.44 1173.73 673.34 1175.83 706.24C1176.63 718.64 1177.33 733.14 1177.33 738.54L1177.33 748.24L1188.83 748.24L1200.33 748.24L1200.33 725.44C1200.33 695.14 1202.03 688.84 1212.43 679.94C1219.43 673.84 1225.33 672.24 1240.33 672.24C1251.13 672.24 1254.23 672.64 1259.03 674.44C1266.33 677.14 1274.33 684.54 1277.43 691.54L1279.83 696.74L1279.83 763.74L1279.83 830.74L1277.23 836.24C1274.13 842.84 1268.23 848.94 1261.73 852.24C1257.33 854.54 1255.43 854.74 1242.33 855.04C1223.83 855.54 1218.73 853.94 1210.13 845.24C1201.23 836.14 1200.33 832.24 1200.33 800.84L1200.33 775.74L1187.63 775.94L1174.93 776.14L1173.33 781.94C1168.53 799.64 1158.23 810.04 1138.13 817.44C1124.53 822.34 1111.83 824.44 1095.33 824.44C1071.13 824.44 1059.73 820.14 1053.63 808.54C1050.03 801.64 1048.53 795.64 1047.53 784.34L1046.83 776.14L1033.03 775.94L1019.33 775.74L1019.33 800.74C1019.33 826.14 1018.63 831.84 1015.13 838.74C1012.53 843.54 1006.23 849.34 1000.33 852.14C995.13 854.64 994.03 854.74 978.83 854.74C963.73 854.74 962.53 854.64 957.93 852.24C951.43 848.94 945.53 842.84 942.43 836.24L939.83 830.74L939.53 766.24C939.33 719.14 939.53 700.54 940.43 697.24C943.13 686.84 951.03 678.04 960.73 674.34C965.43 672.64 968.63 672.24 979.33 672.24C994.53 672.24 1000.43 673.94 1007.63 680.34C1017.93 689.34 1019.33 694.44 1019.33 725.04L1019.33 748.24L1033.03 748.24L1046.63 748.24L1045.93 733.54C1045.53 725.34 1044.63 709.54 1043.83 698.24C1041.63 667.04 1040.33 636.44 1039.63 598.04C1039.33 578.94 1038.93 563.24 1038.83 563.24C1038.73 563.24 1034.13 567.74 1028.73 573.34C1023.23 578.84 1005.73 595.74 989.83 610.84C973.83 625.94 954.03 645.54 945.83 654.34C916.43 685.84 901.43 696.64 875.33 705.14C851.43 712.84 837.73 714.74 804.83 714.74C767.43 714.74 761.73 713.44 718.03 694.64C678.93 677.84 668.13 674.74 648.83 674.84C627.53 674.84 612.73 679.04 569.63 696.84C555.73 702.54 539.53 708.94 533.63 710.94L522.83 714.74L498.83 714.74C476.33 714.74 474.43 714.84 468.03 717.04C450.33 723.24 434.63 739.14 414.23 771.94C399.83 795.04 384.73 823.44 345.83 900.24C325.33 940.64 304.03 982.54 298.53 993.24C293.03 1003.94 283.03 1024.64 276.33 1039.24C269.73 1053.84 261.73 1071.04 258.63 1077.44C255.53 1083.94 253.13 1089.34 253.43 1089.64C253.63 1089.84 258.03 1091.84 263.03 1094.04C271.43 1097.74 272.43 1097.94 273.23 1096.44C273.73 1095.54 277.33 1087.14 281.33 1077.74C291.03 1054.94 292.53 1052.24 297.23 1047.94C304.63 1041.24 308.63 1039.74 319.33 1039.74C328.33 1039.74 329.33 1039.94 339.33 1044.24C357.83 1052.14 366.03 1063.14 365.13 1078.74C364.73 1085.24 362.93 1089.74 339.63 1143.84C325.93 1175.84 313.43 1203.54 311.93 1205.54C308.53 1210.04 302.53 1214.14 296.03 1216.44C288.13 1219.24 280.13 1218.34 267.83 1213.24Z" />
		<path id="Layer" class="shp0" d="M587.13 1072.14C535.33 1058.94 492.83 1019.64 475.53 968.74C469.33 950.64 467.93 940.94 467.83 917.74C467.83 894.34 468.73 888.34 475.03 868.34C489.93 821.24 528.73 781.94 575.83 766.34C594.43 760.14 603.73 758.84 626.83 758.84C646.23 758.84 648.73 759.04 659.83 761.64C708.93 773.04 747.03 802.84 768.73 846.74C781.13 871.74 785.33 889.74 785.33 917.94C785.33 941.84 780.53 964.24 770.93 984.54C747.33 1034.94 698.73 1070.04 644.33 1076.14C626.53 1078.14 604.43 1076.64 587.13 1072.14Z" />
	</g>
</svg>